<mxfile host="Electron" agent="Mozilla/5.0 (Windows NT 10.0; Win64; x64) AppleWebKit/537.36 (KHTML, like Gecko) draw.io/25.0.2 Chrome/128.0.6613.186 Electron/32.2.5 Safari/537.36" version="25.0.2">
  <diagram name="Страница — 1" id="_59ZqUl5TEopYIjiaMoG">
    <mxGraphModel dx="1292" dy="974" grid="1" gridSize="10" guides="1" tooltips="1" connect="1" arrows="1" fold="1" page="1" pageScale="1" pageWidth="827" pageHeight="1169" math="0" shadow="0">
      <root>
        <mxCell id="0" />
        <mxCell id="1" parent="0" />
        <mxCell id="dGDRF4KMqMzO60RxI_FV-3" value="" style="endArrow=none;html=1;rounded=0;strokeWidth=4;" edge="1" parent="1">
          <mxGeometry width="50" height="50" relative="1" as="geometry">
            <mxPoint x="240" y="720" as="sourcePoint" />
            <mxPoint x="240" y="200" as="targetPoint" />
          </mxGeometry>
        </mxCell>
        <mxCell id="dGDRF4KMqMzO60RxI_FV-4" value="" style="endArrow=none;html=1;rounded=0;strokeWidth=4;" edge="1" parent="1">
          <mxGeometry width="50" height="50" relative="1" as="geometry">
            <mxPoint x="600" y="610" as="sourcePoint" />
            <mxPoint x="600" y="200" as="targetPoint" />
          </mxGeometry>
        </mxCell>
        <mxCell id="dGDRF4KMqMzO60RxI_FV-5" value="" style="endArrow=none;html=1;rounded=0;strokeWidth=4;" edge="1" parent="1">
          <mxGeometry width="50" height="50" relative="1" as="geometry">
            <mxPoint x="960" y="410" as="sourcePoint" />
            <mxPoint x="960" y="200" as="targetPoint" />
          </mxGeometry>
        </mxCell>
        <mxCell id="dGDRF4KMqMzO60RxI_FV-7" value="Стреляющий" style="text;html=1;align=center;verticalAlign=middle;whiteSpace=wrap;rounded=0;" vertex="1" parent="1">
          <mxGeometry x="930" y="170" width="60" height="30" as="geometry" />
        </mxCell>
        <mxCell id="dGDRF4KMqMzO60RxI_FV-8" value="Патрон" style="text;html=1;align=center;verticalAlign=middle;whiteSpace=wrap;rounded=0;" vertex="1" parent="1">
          <mxGeometry x="570" y="170" width="60" height="30" as="geometry" />
        </mxCell>
        <mxCell id="dGDRF4KMqMzO60RxI_FV-9" value="Принимающий" style="text;html=1;align=center;verticalAlign=middle;whiteSpace=wrap;rounded=0;" vertex="1" parent="1">
          <mxGeometry x="190" y="170" width="110" height="30" as="geometry" />
        </mxCell>
        <mxCell id="dGDRF4KMqMzO60RxI_FV-10" value="" style="endArrow=classic;html=1;rounded=0;strokeWidth=3;" edge="1" parent="1">
          <mxGeometry width="50" height="50" relative="1" as="geometry">
            <mxPoint x="950" y="360" as="sourcePoint" />
            <mxPoint x="610" y="360" as="targetPoint" />
          </mxGeometry>
        </mxCell>
        <mxCell id="dGDRF4KMqMzO60RxI_FV-13" value="Выстрел" style="text;html=1;align=center;verticalAlign=middle;whiteSpace=wrap;rounded=0;" vertex="1" parent="1">
          <mxGeometry x="1070" y="200" width="90" height="30" as="geometry" />
        </mxCell>
        <mxCell id="dGDRF4KMqMzO60RxI_FV-14" value="dmg, usableDotsArray, BulletflySpeed,&amp;nbsp;bulletTimeAlive" style="text;html=1;align=center;verticalAlign=middle;whiteSpace=wrap;rounded=0;" vertex="1" parent="1">
          <mxGeometry x="720" y="320" width="160" height="30" as="geometry" />
        </mxCell>
        <mxCell id="dGDRF4KMqMzO60RxI_FV-16" value="" style="curved=1;endArrow=classic;html=1;rounded=0;strokeWidth=3;entryX=0;entryY=0.5;entryDx=0;entryDy=0;" edge="1" parent="1" target="dGDRF4KMqMzO60RxI_FV-18">
          <mxGeometry width="50" height="50" relative="1" as="geometry">
            <mxPoint x="950" y="210" as="sourcePoint" />
            <mxPoint x="950" y="260" as="targetPoint" />
            <Array as="points">
              <mxPoint x="890" y="210" />
              <mxPoint x="890" y="290" />
            </Array>
          </mxGeometry>
        </mxCell>
        <mxCell id="dGDRF4KMqMzO60RxI_FV-17" value="&lt;span style=&quot;color: rgb(0, 0, 0); font-family: Helvetica; font-size: 12px; font-style: normal; font-variant-ligatures: normal; font-variant-caps: normal; font-weight: 400; letter-spacing: normal; orphans: 2; text-align: center; text-indent: 0px; text-transform: none; widows: 2; word-spacing: 0px; -webkit-text-stroke-width: 0px; white-space: normal; background-color: rgb(251, 251, 251); text-decoration-thickness: initial; text-decoration-style: initial; text-decoration-color: initial; display: inline !important; float: none;&quot;&gt;critChance,&amp;nbsp;&lt;/span&gt;&lt;span style=&quot;text-align: center;&quot;&gt;dmg&lt;/span&gt;" style="text;whiteSpace=wrap;html=1;" vertex="1" parent="1">
          <mxGeometry x="827" y="190" width="90" height="40" as="geometry" />
        </mxCell>
        <mxCell id="dGDRF4KMqMzO60RxI_FV-18" value="dmg" style="text;html=1;align=center;verticalAlign=middle;whiteSpace=wrap;rounded=0;" vertex="1" parent="1">
          <mxGeometry x="950" y="270" width="60" height="30" as="geometry" />
        </mxCell>
        <mxCell id="dGDRF4KMqMzO60RxI_FV-19" value="" style="shape=flexArrow;endArrow=classic;html=1;rounded=0;" edge="1" parent="1">
          <mxGeometry width="50" height="50" relative="1" as="geometry">
            <mxPoint x="1020" y="210" as="sourcePoint" />
            <mxPoint x="960" y="210" as="targetPoint" />
          </mxGeometry>
        </mxCell>
        <mxCell id="dGDRF4KMqMzO60RxI_FV-20" value="" style="curved=1;endArrow=classic;html=1;rounded=0;strokeWidth=3;exitX=1;exitY=0.5;exitDx=0;exitDy=0;" edge="1" parent="1" source="dGDRF4KMqMzO60RxI_FV-18">
          <mxGeometry width="50" height="50" relative="1" as="geometry">
            <mxPoint x="1020" y="310" as="sourcePoint" />
            <mxPoint x="970" y="360" as="targetPoint" />
            <Array as="points">
              <mxPoint x="1060" y="280" />
              <mxPoint x="1060" y="370" />
            </Array>
          </mxGeometry>
        </mxCell>
        <mxCell id="dGDRF4KMqMzO60RxI_FV-21" value="Проверка критичности выстрела" style="text;html=1;align=center;verticalAlign=middle;whiteSpace=wrap;rounded=0;" vertex="1" parent="1">
          <mxGeometry x="740" y="235" width="160" height="30" as="geometry" />
        </mxCell>
        <mxCell id="dGDRF4KMqMzO60RxI_FV-22" value="" style="endArrow=classic;html=1;rounded=0;strokeWidth=3;" edge="1" parent="1">
          <mxGeometry width="50" height="50" relative="1" as="geometry">
            <mxPoint x="589" y="480" as="sourcePoint" />
            <mxPoint x="239" y="480" as="targetPoint" />
          </mxGeometry>
        </mxCell>
        <mxCell id="dGDRF4KMqMzO60RxI_FV-23" value="" style="curved=1;endArrow=classic;html=1;rounded=0;strokeWidth=3;entryX=0;entryY=0.5;entryDx=0;entryDy=0;" edge="1" parent="1">
          <mxGeometry width="50" height="50" relative="1" as="geometry">
            <mxPoint x="600" y="360" as="sourcePoint" />
            <mxPoint x="600" y="435" as="targetPoint" />
            <Array as="points">
              <mxPoint x="540" y="360" />
              <mxPoint x="540" y="440" />
            </Array>
          </mxGeometry>
        </mxCell>
        <mxCell id="dGDRF4KMqMzO60RxI_FV-24" value="dmg, usableDotsArray, BulletflySpeed,&amp;nbsp;bulletTimeAlive" style="text;html=1;align=center;verticalAlign=middle;whiteSpace=wrap;rounded=0;" vertex="1" parent="1">
          <mxGeometry x="380" y="350" width="160" height="30" as="geometry" />
        </mxCell>
        <mxCell id="dGDRF4KMqMzO60RxI_FV-25" value="Занесение переменных как пеоеменных объекта патрона" style="text;html=1;align=center;verticalAlign=middle;whiteSpace=wrap;rounded=0;" vertex="1" parent="1">
          <mxGeometry x="340" y="390" width="210" height="30" as="geometry" />
        </mxCell>
        <mxCell id="dGDRF4KMqMzO60RxI_FV-26" value="" style="shape=flexArrow;endArrow=classic;html=1;rounded=0;" edge="1" parent="1">
          <mxGeometry width="50" height="50" relative="1" as="geometry">
            <mxPoint x="680" y="480" as="sourcePoint" />
            <mxPoint x="600" y="480" as="targetPoint" />
          </mxGeometry>
        </mxCell>
        <mxCell id="dGDRF4KMqMzO60RxI_FV-27" value="Коллизия" style="text;html=1;align=center;verticalAlign=middle;whiteSpace=wrap;rounded=0;" vertex="1" parent="1">
          <mxGeometry x="680" y="470" width="60" height="30" as="geometry" />
        </mxCell>
        <mxCell id="dGDRF4KMqMzO60RxI_FV-28" value="dmg, usableDotsArray" style="text;html=1;align=center;verticalAlign=middle;whiteSpace=wrap;rounded=0;" vertex="1" parent="1">
          <mxGeometry x="330" y="450" width="200" height="30" as="geometry" />
        </mxCell>
        <mxCell id="dGDRF4KMqMzO60RxI_FV-30" value="" style="curved=1;endArrow=classic;html=1;rounded=0;strokeWidth=3;entryX=0;entryY=0.5;entryDx=0;entryDy=0;" edge="1" parent="1">
          <mxGeometry width="50" height="50" relative="1" as="geometry">
            <mxPoint x="230" y="480" as="sourcePoint" />
            <mxPoint x="230" y="555" as="targetPoint" />
            <Array as="points">
              <mxPoint x="170" y="480" />
              <mxPoint x="170" y="560" />
            </Array>
          </mxGeometry>
        </mxCell>
        <mxCell id="dGDRF4KMqMzO60RxI_FV-31" value="" style="curved=1;endArrow=classic;html=1;rounded=0;strokeWidth=3;entryX=0;entryY=0.5;entryDx=0;entryDy=0;" edge="1" parent="1">
          <mxGeometry width="50" height="50" relative="1" as="geometry">
            <mxPoint x="590" y="520" as="sourcePoint" />
            <mxPoint x="590" y="595" as="targetPoint" />
            <Array as="points">
              <mxPoint x="530" y="520" />
              <mxPoint x="530" y="600" />
            </Array>
          </mxGeometry>
        </mxCell>
        <mxCell id="dGDRF4KMqMzO60RxI_FV-32" value="Уничтожение объекта патрона" style="text;html=1;align=center;verticalAlign=middle;whiteSpace=wrap;rounded=0;" vertex="1" parent="1">
          <mxGeometry x="450" y="540" width="60" height="30" as="geometry" />
        </mxCell>
        <mxCell id="dGDRF4KMqMzO60RxI_FV-33" value="dmg" style="text;html=1;align=center;verticalAlign=middle;whiteSpace=wrap;rounded=0;" vertex="1" parent="1">
          <mxGeometry x="120" y="470" width="60" height="30" as="geometry" />
        </mxCell>
        <mxCell id="dGDRF4KMqMzO60RxI_FV-34" value="Метод получения урона до брони,&lt;br&gt;Метод получения урона" style="text;html=1;align=center;verticalAlign=middle;whiteSpace=wrap;rounded=0;" vertex="1" parent="1">
          <mxGeometry x="20" y="500" width="140" height="70" as="geometry" />
        </mxCell>
        <mxCell id="dGDRF4KMqMzO60RxI_FV-35" value="" style="curved=1;endArrow=classic;html=1;rounded=0;strokeWidth=3;entryX=0;entryY=0.5;entryDx=0;entryDy=0;" edge="1" parent="1">
          <mxGeometry width="50" height="50" relative="1" as="geometry">
            <mxPoint x="230" y="600" as="sourcePoint" />
            <mxPoint x="230" y="675" as="targetPoint" />
            <Array as="points">
              <mxPoint x="170" y="600" />
              <mxPoint x="170" y="680" />
            </Array>
          </mxGeometry>
        </mxCell>
        <mxCell id="dGDRF4KMqMzO60RxI_FV-36" value="Метод заполнения recievedDots массива полученных ДОТов" style="text;html=1;align=center;verticalAlign=middle;whiteSpace=wrap;rounded=0;" vertex="1" parent="1">
          <mxGeometry x="30" y="620" width="140" height="30" as="geometry" />
        </mxCell>
        <mxCell id="dGDRF4KMqMzO60RxI_FV-37" value="actualHp" style="text;html=1;align=center;verticalAlign=middle;whiteSpace=wrap;rounded=0;" vertex="1" parent="1">
          <mxGeometry x="70" y="460" width="60" height="30" as="geometry" />
        </mxCell>
        <mxCell id="dGDRF4KMqMzO60RxI_FV-38" value="actualHp" style="text;html=1;align=center;verticalAlign=middle;whiteSpace=wrap;rounded=0;" vertex="1" parent="1">
          <mxGeometry x="240" y="540" width="60" height="30" as="geometry" />
        </mxCell>
        <mxCell id="dGDRF4KMqMzO60RxI_FV-39" value="recievedDots&amp;nbsp;" style="text;html=1;align=center;verticalAlign=middle;whiteSpace=wrap;rounded=0;" vertex="1" parent="1">
          <mxGeometry x="250" y="660" width="60" height="30" as="geometry" />
        </mxCell>
        <mxCell id="dGDRF4KMqMzO60RxI_FV-41" value="&#xa;&lt;span style=&quot;color: rgb(0, 0, 0); font-family: Helvetica; font-size: 12px; font-style: normal; font-variant-ligatures: normal; font-variant-caps: normal; font-weight: 400; letter-spacing: normal; orphans: 2; text-align: center; text-indent: 0px; text-transform: none; widows: 2; word-spacing: 0px; -webkit-text-stroke-width: 0px; white-space: normal; background-color: rgb(251, 251, 251); text-decoration-thickness: initial; text-decoration-style: initial; text-decoration-color: initial; display: inline !important; float: none;&quot;&gt;usableDotsArray&lt;/span&gt;&#xa;&#xa;" style="text;html=1;align=center;verticalAlign=middle;whiteSpace=wrap;rounded=0;" vertex="1" parent="1">
          <mxGeometry x="120" y="590" width="60" height="30" as="geometry" />
        </mxCell>
      </root>
    </mxGraphModel>
  </diagram>
</mxfile>
